<?xml version="1.0" encoding="utf-8"?>
<svg viewBox="-4.6296234130859375 21.296287536621094 837.8148193359375 107.40743255615234" xmlns="http://www.w3.org/2000/svg">
  <path d="M 532.038 28.038 L 540.746 60.496 L 573.204 51.788 L 549.454 75.538 L 573.204 99.288 L 540.746 90.58 L 532.038 123.038 L 523.329 90.58 L 490.871 99.288 L 514.621 75.538 L 490.871 51.788 L 523.329 60.496 L 532.038 28.038 Z" fill="#f00"/>
  <g transform="matrix(1, 0, 0, 1, -252.70369, 3.148148)">
    <path d="M 337.963 24.722 L 346.671 57.18 L 379.129 48.472 L 355.379 72.222 L 379.129 95.972 L 346.671 87.264 L 337.963 119.722 L 329.254 87.264 L 296.796 95.972 L 320.546 72.222 L 296.796 48.472 L 329.254 57.18 L 337.963 24.722 Z" fill="#f00"/>
  </g>
  <path d="M 308.926 27.574 L 317.634 60.032 L 350.092 51.324 L 326.342 75.074 L 350.092 98.824 L 317.634 90.116 L 308.926 122.574 L 300.217 90.116 L 267.759 98.824 L 291.509 75.074 L 267.759 51.324 L 300.217 60.032 L 308.926 27.574 Z" fill="#f00"/>
  <path d="M 734.26 28.426 L 742.968 60.884 L 775.426 52.176 L 751.676 75.926 L 775.426 99.676 L 742.968 90.968 L 734.26 123.426 L 725.551 90.968 L 693.093 99.676 L 716.843 75.926 L 693.093 52.176 L 725.551 60.884 L 734.26 28.426 Z" fill="#f00"/>
</svg>